<svg xmlns="http://www.w3.org/2000/svg" viewBox="0 0 32 32" role="img" aria-label="TCG Vault">
  <defs>
    <linearGradient id="vault-gradient" x1="0%" y1="0%" x2="100%" y2="100%">
      <stop offset="0%" stop-color="#3B4CCA"/>
      <stop offset="100%" stop-color="#FFCB05"/>
    </linearGradient>
  </defs>
  <rect width="32" height="32" rx="8" fill="url(#vault-gradient)"/>
  <path fill="#fff" d="M16 6C10.48 6 6 10.48 6 16s4.48 10 10 10 10-4.48 10-10S21.52 6 16 6zm1-7.75c1.66 0 3 1.34 3 3s-1.34 3-3 3-3-1.34-3-3 1.34-3 3-3zm-1 10.75c-2.58 0-4.67-2.09-4.67-4.67 0-.33.04-.66.11-.98l2.87 2.87c.73-.25 1.58.12 1.91.83.07.15.1.31.1.47v.14h-.07c-.64 0-1.26-.26-1.72-.72l-1.34-1.34c-.33-.33-.85-.33-1.18 0-.33.33-.33.85 0 1.18l2.58 2.58c1.19.72 2.07 1.85 2.07 3.18 0 3.31-2.69 6-6 6s-6-2.69-6-6h.33c0 3.13 2.54 5.67 5.67 5.67 3.13 0 5.67-2.54 5.67-5.67h.33c0 3.31-2.69 6-6 6z"/>
</svg>
